<svg width="880" height="880" viewBox="0 0 880 880" fill="none" xmlns="http://www.w3.org/2000/svg">
<mask id="path-1-inside-1_80412_2014" fill="white">
<path fill-rule="evenodd" clip-rule="evenodd" d="M440 880C683.005 880 880 683.005 880 440C880 196.995 683.005 0 440 0C196.995 0 0 196.995 0 440C0 683.005 196.995 880 440 880ZM440 830C655.391 830 830 655.391 830 440C830 224.609 655.391 50 440 50C224.609 50 50 224.609 50 440C50 655.391 224.609 830 440 830Z"/>
</mask>
<path fill-rule="evenodd" clip-rule="evenodd" d="M440 880C683.005 880 880 683.005 880 440C880 196.995 683.005 0 440 0C196.995 0 0 196.995 0 440C0 683.005 196.995 880 440 880ZM440 830C655.391 830 830 655.391 830 440C830 224.609 655.391 50 440 50C224.609 50 50 224.609 50 440C50 655.391 224.609 830 440 830Z" fill="#002C58"/>
<path d="M879 440C879 682.453 682.453 879 440 879V881C683.558 881 881 683.558 881 440H879ZM440 1C682.453 1 879 197.547 879 440H881C881 196.442 683.558 -1 440 -1V1ZM1 440C1 197.547 197.547 1 440 1V-1C196.442 -1 -1 196.442 -1 440H1ZM440 879C197.547 879 1 682.453 1 440H-1C-1 683.558 196.442 881 440 881V879ZM829 440C829 654.839 654.839 829 440 829V831C655.943 831 831 655.943 831 440H829ZM440 51C654.839 51 829 225.161 829 440H831C831 224.057 655.943 49 440 49V51ZM51 440C51 225.161 225.161 51 440 51V49C224.057 49 49 224.057 49 440H51ZM440 829C225.161 829 51 654.839 51 440H49C49 655.943 224.057 831 440 831V829Z" fill="#002C58" mask="url(#path-1-inside-1_80412_2014)"/>
<path d="M128.873 128.873C169.731 88.0152 218.236 55.6051 271.619 33.493C325.003 11.3809 382.218 -7.57714e-06 440 0C497.782 7.57715e-06 554.998 11.381 608.381 33.493C661.764 55.6051 710.269 88.0153 751.127 128.873L440 440L128.873 128.873Z" fill="url(#paint0_linear_80412_2014)"/>
<mask id="path-4-inside-2_80412_2014" fill="white">
<path fill-rule="evenodd" clip-rule="evenodd" d="M323.523 345.477C302.563 371.274 290 404.17 290 440C290 522.843 357.157 590 440 590C522.843 590 590 522.843 590 440C590 404.024 577.335 371.007 556.221 345.163L554.8 346.584C575.555 372.061 588 404.577 588 440C588 521.738 521.738 588 440 588C358.262 588 292 521.738 292 440C292 404.722 304.343 372.328 324.945 346.898L323.523 345.477Z"/>
</mask>
<path fill-rule="evenodd" clip-rule="evenodd" d="M323.523 345.477C302.563 371.274 290 404.17 290 440C290 522.843 357.157 590 440 590C522.843 590 590 522.843 590 440C590 404.024 577.335 371.007 556.221 345.163L554.8 346.584C575.555 372.061 588 404.577 588 440C588 521.738 521.738 588 440 588C358.262 588 292 521.738 292 440C292 404.722 304.343 372.328 324.945 346.898L323.523 345.477Z" fill="#002C58"/>
<path d="M323.523 345.477L327.059 341.941L323.139 338.021L319.643 342.324L323.523 345.477ZM556.221 345.163L560.093 342L556.595 337.718L552.686 341.627L556.221 345.163ZM554.8 346.584L551.264 343.049L548.071 346.242L550.923 349.743L554.8 346.584ZM324.945 346.898L328.83 350.046L331.665 346.547L328.481 343.363L324.945 346.898ZM319.643 342.324C297.984 368.98 285 402.98 285 440H295C295 405.36 307.141 373.568 327.404 348.63L319.643 342.324ZM285 440C285 525.604 354.396 595 440 595V585C359.919 585 295 520.081 295 440H285ZM440 595C525.604 595 595 525.604 595 440H585C585 520.081 520.081 585 440 585V595ZM595 440C595 402.83 581.91 368.704 560.093 342L552.349 348.326C572.76 373.31 585 405.219 585 440H595ZM552.686 341.627L551.264 343.049L558.335 350.12L559.757 348.698L552.686 341.627ZM593 440C593 403.385 580.132 369.762 558.676 343.426L550.923 349.743C570.979 374.359 583 405.769 583 440H593ZM440 593C524.5 593 593 524.499 593 440H583C583 518.977 518.977 583 440 583V593ZM287 440C287 524.499 355.5 593 440 593V583C361.023 583 297 518.977 297 440H287ZM321.06 343.751C299.763 370.038 287 403.535 287 440H297C297 405.909 308.923 374.617 328.83 350.046L321.06 343.751ZM328.481 343.363L327.059 341.941L319.988 349.012L321.41 350.434L328.481 343.363Z" fill="#002C58" mask="url(#path-4-inside-2_80412_2014)"/>
<mask id="path-6-inside-3_80412_2014" fill="white">
<path fill-rule="evenodd" clip-rule="evenodd" d="M216.981 239.341C169.125 292.495 140 362.846 140 440C140 605.685 274.315 740 440 740C605.685 740 740 605.685 740 440C740 362.734 710.79 292.29 662.81 239.109L661.394 240.525C709.013 293.343 738 363.286 738 440C738 604.581 604.581 738 440 738C275.419 738 142 604.581 142 440C142 363.398 170.902 293.547 218.397 240.757L216.981 239.341Z"/>
</mask>
<path fill-rule="evenodd" clip-rule="evenodd" d="M216.981 239.341C169.125 292.495 140 362.846 140 440C140 605.685 274.315 740 440 740C605.685 740 740 605.685 740 440C740 362.734 710.79 292.29 662.81 239.109L661.394 240.525C709.013 293.343 738 363.286 738 440C738 604.581 604.581 738 440 738C275.419 738 142 604.581 142 440C142 363.398 170.902 293.547 218.397 240.757L216.981 239.341Z" fill="#002C58"/>
<path d="M216.981 239.341L220.516 235.805L216.791 232.08L213.265 235.995L216.981 239.341ZM662.81 239.109L666.522 235.76L662.996 231.851L659.274 235.573L662.81 239.109ZM661.394 240.525L657.858 236.989L654.501 240.347L657.68 243.873L661.394 240.525ZM218.397 240.757L222.114 244.101L225.286 240.575L221.933 237.222L218.397 240.757ZM213.265 235.995C164.615 290.032 135 361.563 135 440H145C145 364.129 173.636 294.958 220.697 242.686L213.265 235.995ZM135 440C135 608.447 271.553 745 440 745V735C277.076 735 145 602.924 145 440H135ZM440 745C608.447 745 745 608.447 745 440H735C735 602.924 602.924 735 440 735V745ZM745 440C745 361.449 715.299 289.823 666.522 235.76L659.098 242.458C706.281 294.756 735 364.018 735 440H745ZM659.274 235.573L657.858 236.989L664.929 244.061L666.346 242.644L659.274 235.573ZM743 440C743 362.002 713.522 290.877 665.107 237.177L657.68 243.873C704.503 295.808 733 364.57 733 440H743ZM440 743C607.342 743 743 607.342 743 440H733C733 601.819 601.819 733 440 733V743ZM137 440C137 607.342 272.658 743 440 743V733C278.181 733 147 601.819 147 440H137ZM214.68 237.413C166.392 291.086 137 362.116 137 440H147C147 364.681 175.413 296.009 222.114 244.101L214.68 237.413ZM221.933 237.222L220.516 235.805L213.445 242.876L214.862 244.293L221.933 237.222Z" fill="#002C58" mask="url(#path-6-inside-3_80412_2014)"/>
<defs>
<linearGradient id="paint0_linear_80412_2014" x1="596" y1="43.5" x2="115" y2="43.5" gradientUnits="userSpaceOnUse">
<stop stop-color="#002C58"/>
<stop offset="1" stop-color="#002C58" stop-opacity="0"/>
</linearGradient>
</defs>
</svg>
